Coordinates
version=1
nRows=41
nColumns=38
inDegrees=no

Units are S.I. units (second, meters, Newtons, ...)
If the header above contains a line with 'inDegrees', this indicates whether rotational values are in degrees (yes) or radians (no).

endheader
time	pelvis_tilt	pelvis_list	pelvis_rotation	pelvis_tx	pelvis_ty	pelvis_tz	hip_flexion_r	hip_adduction_r	hip_rotation_r	knee_angle_r	ankle_angle_r	subtalar_angle_r	mtp_angle_r	hip_flexion_l	hip_adduction_l	hip_rotation_l	knee_angle_l	ankle_angle_l	subtalar_angle_l	mtp_angle_l	lumbar_extension	lumbar_bending	lumbar_rotation	arm_flex_r	arm_add_r	arm_rot_r	elbow_flex_r	pro_sup_r	wrist_flex_r	wrist_dev_r	arm_flex_l	arm_add_l	arm_rot_l	elbow_flex_l	pro_sup_l	wrist_flex_l	wrist_dev_l
0	-2.99016	1.34526	-1.56124	0.830085	-0.416826	1.08828	-0.22439	-0.0338933	-0.0776561	0.215839	-0.356819	0	0	-0.253313	-0.0527169	-0.149231	0.308877	-0.195067	0	0	-0.524461	-0.00557205	0.150355	0.154032	-0.323199	0.272775	0.404863	1.5708	0	0	0.358262	-0.166871	0.526221	0.213126	1.5708	0	0
0.01	-2.98825	1.3484	-1.56307	0.830257	-0.416629	1.08811	-0.220476	-0.0343165	-0.075788	0.217998	-0.355526	0	0	-0.252134	-0.0509881	-0.143424	0.303202	-0.196319	0	0	-0.517755	-0.00598556	0.149607	0.152018	-0.325261	0.270028	0.416742	1.5708	0	0	0.353254	-0.16868	0.528898	0.22211	1.5708	0	0
0.02	-2.98664	1.35131	-1.5639	0.830377	-0.416422	1.08793	-0.216718	-0.0344515	-0.0759643	0.220198	-0.353959	0	0	-0.248881	-0.0508409	-0.142223	0.303333	-0.196765	0	0	-0.511565	-0.00703609	0.149161	0.150853	-0.325455	0.264134	0.424888	1.5708	0	0	0.350215	-0.170558	0.536536	0.229688	1.5708	0	0
0.03	-2.98524	1.35373	-1.56385	0.830419	-0.416225	1.08779	-0.214523	-0.0342464	-0.0767849	0.219958	-0.353388	0	0	-0.246017	-0.0509762	-0.140646	0.30363	-0.196754	0	0	-0.506582	-0.00795644	0.148312	0.149907	-0.325136	0.256806	0.431747	1.5708	0	0	0.347442	-0.174652	0.553422	0.240026	1.5708	0	0
0.04	-2.98491	1.3558	-1.56252	0.8304	-0.416031	1.0877	-0.213039	-0.0337975	-0.0779128	0.219013	-0.35376	0	0	-0.243436	-0.0514307	-0.13924	0.304102	-0.196615	0	0	-0.503074	-0.00856194	0.147644	0.149139	-0.324634	0.248009	0.437321	1.5708	0	0	0.346463	-0.181955	0.589237	0.251917	1.5708	0	0
0.05	-2.97051	1.33015	-1.57254	0.831388	-0.417498	1.08911	-0.243168	-0.03489	-0.0871204	0.21307	-0.354243	0	0	-0.273231	-0.0495184	-0.13167	0.294988	-0.199803	0	0	-0.533912	-0.0269464	0.153179	0.146042	-0.319483	0.226375	0.44909	1.5708	0	0	0.325728	-0.19052	0.481363	0.323218	1.5708	0	0
0.06	-2.96947	1.33028	-1.57285	0.831491	-0.417529	1.08915	-0.242944	-0.03483	-0.0872235	0.213242	-0.354848	0	0	-0.27084	-0.05067	-0.136181	0.299703	-0.200076	0	0	-0.532814	-0.0267836	0.151623	0.148136	-0.319603	0.224625	0.450201	1.5708	0	0	0.32403	-0.189174	0.475286	0.325707	1.5708	0	0
0.07	-2.96949	1.33073	-1.5716	0.831526	-0.41753	1.08913	-0.242472	-0.0343878	-0.0880056	0.213504	-0.355226	0	0	-0.269275	-0.0514497	-0.137	0.301959	-0.199709	0	0	-0.531886	-0.026131	0.150302	0.149823	-0.31932	0.220975	0.450201	1.5708	0	0	0.323344	-0.187709	0.472664	0.326934	1.5708	0	0
0.08	-2.9824	1.35589	-1.56136	0.830721	-0.416235	1.088	-0.213632	-0.0328086	-0.0784801	0.217294	-0.356723	0	0	-0.242469	-0.0519561	-0.135787	0.302838	-0.199962	0	0	-0.516815	-0.01141	0.128297	0.169537	-0.319717	0.233656	0.446602	1.5708	0	0	0.391931	-0.129132	0.477719	0.129181	1.5708	0	0
0.09	-2.98109	1.35475	-1.56279	0.830957	-0.416503	1.088	-0.213427	-0.0330766	-0.0772717	0.220365	-0.355629	0	0	-0.242559	-0.0520005	-0.137322	0.305213	-0.199013	0	0	-0.516927	-0.0123684	0.133181	0.168178	-0.320712	0.228483	0.445404	1.5708	0	0	0.397109	-0.121083	0.464268	0.119069	1.5708	0	0
0.1	-2.9802	1.35248	-1.56332	0.83121	-0.416746	1.08813	-0.215263	-0.0329621	-0.0767827	0.221666	-0.354427	0	0	-0.244094	-0.0523254	-0.138499	0.306803	-0.198244	0	0	-0.519379	-0.0125588	0.135444	0.169111	-0.320578	0.221978	0.443055	1.5708	0	0	0.397456	-0.118393	0.454441	0.12128	1.5708	0	0
0.11	-2.97913	1.34905	-1.56382	0.831549	-0.417065	1.08836	-0.21866	-0.0326136	-0.0762092	0.222112	-0.352832	0	0	-0.246819	-0.052824	-0.139329	0.308194	-0.197542	0	0	-0.523345	-0.0126964	0.136212	0.168938	-0.320864	0.22147	0.441506	1.5708	0	0	0.395849	-0.117994	0.44403	0.128436	1.5708	0	0
0.12	-2.96747	1.32564	-1.57088	0.832321	-0.418429	1.08958	-0.246209	-0.0332188	-0.0850042	0.216913	-0.35214	0	0	-0.270668	-0.0529205	-0.138577	0.308217	-0.197566	0	0	-0.543706	-0.0257401	0.151637	0.159586	-0.314012	0.188858	0.438162	1.5708	0	0	0.332602	-0.179559	0.48198	0.324256	1.5708	0	0
0.13	-2.96539	1.32432	-1.57151	0.83236	-0.418606	1.08967	-0.247832	-0.0332156	-0.0854436	0.216578	-0.352517	0	0	-0.271267	-0.0528946	-0.137061	0.308926	-0.197877	0	0	-0.546323	-0.0255587	0.151121	0.161074	-0.312409	0.185436	0.434482	1.5708	0	0	0.334309	-0.178019	0.483131	0.323284	1.5708	0	0
0.14	-2.96348	1.32318	-1.57234	0.832413	-0.418704	1.08974	-0.249259	-0.0332589	-0.0860146	0.216266	-0.352795	0	0	-0.271954	-0.0528951	-0.136177	0.309324	-0.198136	0	0	-0.548646	-0.0254598	0.150844	0.162517	-0.310781	0.182154	0.429721	1.5708	0	0	0.335679	-0.176633	0.484162	0.32238	1.5708	0	0
0.15	-2.96247	1.32434	-1.57265	0.832403	-0.418651	1.08974	-0.248152	-0.033202	-0.0857087	0.216132	-0.353102	0	0	-0.270329	-0.0528135	-0.135095	0.309452	-0.198556	0	0	-0.549052	-0.0233314	0.148196	0.165265	-0.309461	0.183623	0.425011	1.5708	0	0	0.343738	-0.16867	0.486079	0.300764	1.5708	0	0
0.16	-2.96104	1.32403	-1.57324	0.832441	-0.418706	1.08976	-0.248559	-0.033227	-0.0855556	0.21625	-0.353118	0	0	-0.270058	-0.0527924	-0.134083	0.31002	-0.198821	0	0	-0.550052	-0.0225915	0.14788	0.166607	-0.30861	0.183829	0.421451	1.5708	0	0	0.347917	-0.164895	0.490766	0.292011	1.5708	0	0
0.17	-2.95921	1.32196	-1.57396	0.83252	-0.418858	1.08989	-0.251148	-0.0332687	-0.0860975	0.215723	-0.352947	0	0	-0.271684	-0.0528195	-0.133037	0.310503	-0.19901	0	0	-0.55271	-0.0228603	0.148927	0.16692	-0.307642	0.183394	0.417982	1.5708	0	0	0.348598	-0.165868	0.499767	0.296177	1.5708	0	0
0.18	-2.95658	1.31748	-1.57517	0.832668	-0.419175	1.09016	-0.256591	-0.0333509	-0.0873648	0.214422	-0.353045	0	0	-0.275734	-0.0528683	-0.132043	0.311064	-0.199171	0	0	-0.558371	-0.0249296	0.150586	0.16643	-0.306618	0.184658	0.415765	1.5708	0	0	0.342503	-0.173607	0.503917	0.321548	1.5708	0	0
0.19	-2.95517	1.31699	-1.57578	0.832756	-0.419264	1.09021	-0.257252	-0.0332997	-0.087318	0.214137	-0.353219	0	0	-0.275569	-0.0528661	-0.130871	0.311827	-0.199279	0	0	-0.55973	-0.0243313	0.149871	0.167529	-0.305923	0.186688	0.413821	1.5708	0	0	0.344789	-0.171521	0.50548	0.318045	1.5708	0	0
0.2	-2.9538	1.31516	-1.57625	0.832859	-0.419426	1.09034	-0.259471	-0.0331867	-0.0880173	0.213577	-0.353425	0	0	-0.276868	-0.0528786	-0.129659	0.312522	-0.199298	0	0	-0.562186	-0.0245556	0.149983	0.16809	-0.30563	0.191631	0.412098	1.5708	0	0	0.344121	-0.172991	0.508797	0.324163	1.5708	0	0
0.21	-2.95357	1.3148	-1.5771	0.832885	-0.419371	1.09035	-0.259844	-0.0334519	-0.0872327	0.213737	-0.3533	0	0	-0.277436	-0.0525956	-0.13073	0.312223	-0.199571	0	0	-0.562767	-0.0243918	0.150759	0.168328	-0.306007	0.195467	0.411699	1.5708	0	0	0.343931	-0.172341	0.510298	0.325428	1.5708	0	0
0.22	-2.95473	1.31519	-1.57845	0.832838	-0.419106	1.09027	-0.259125	-0.0341523	-0.0849758	0.214534	-0.352691	0	0	-0.278138	-0.0520982	-0.135091	0.311032	-0.200081	0	0	-0.562182	-0.0243826	0.152943	0.168	-0.307603	0.20266	0.411783	1.5708	0	0	0.34267	-0.171245	0.510789	0.326828	1.5708	0	0
0.23	-2.95213	1.31586	-1.58227	0.832887	-0.418958	1.09006	-0.257211	-0.03564	-0.084928	0.217499	-0.350696	0	0	-0.277911	-0.0511901	-0.137353	0.310506	-0.200404	0	0	-0.560782	-0.0249225	0.153501	0.167859	-0.309329	0.215097	0.411943	1.5708	0	0	0.341327	-0.171132	0.511261	0.328536	1.5708	0	0
0.24	-2.95099	1.31568	-1.58331	0.832938	-0.41899	1.09007	-0.257168	-0.0359094	-0.0852645	0.218158	-0.34971	0	0	-0.278293	-0.0510878	-0.137545	0.309723	-0.20098	0	0	-0.56083	-0.0247309	0.152949	0.167814	-0.310245	0.224008	0.413181	1.5708	0	0	0.340361	-0.171578	0.511298	0.330851	1.5708	0	0
0.25	-2.95067	1.31559	-1.58355	0.833026	-0.419003	1.09008	-0.257055	-0.0359333	-0.0853764	0.218334	-0.349617	0	0	-0.278109	-0.0511109	-0.137415	0.310233	-0.200884	0	0	-0.560656	-0.0243955	0.152543	0.167667	-0.311642	0.233988	0.415125	1.5708	0	0	0.339166	-0.172234	0.510983	0.333548	1.5708	0	0
0.26	-2.95091	1.31522	-1.58327	0.833097	-0.419036	1.0901	-0.257433	-0.0358395	-0.0855779	0.218225	-0.349759	0	0	-0.278027	-0.0511903	-0.137226	0.311385	-0.200247	0	0	-0.560657	-0.0239001	0.152296	0.167173	-0.313047	0.241192	0.417936	1.5708	0	0	0.337815	-0.172922	0.510051	0.336553	1.5708	0	0
0.27	-2.95018	1.31483	-1.58387	0.833143	-0.419107	1.09013	-0.257827	-0.0360073	-0.0860609	0.218221	-0.349821	0	0	-0.278376	-0.0510698	-0.136941	0.311352	-0.20024	0	0	-0.560981	-0.0235877	0.151671	0.166419	-0.314403	0.247855	0.421241	1.5708	0	0	0.336395	-0.1738	0.508636	0.339844	1.5708	0	0
0.28	-2.94938	1.31452	-1.58463	0.833199	-0.419173	1.09013	-0.258109	-0.03618	-0.086583	0.218185	-0.349879	0	0	-0.27864	-0.0509508	-0.136858	0.311375	-0.200429	0	0	-0.561376	-0.0233219	0.150858	0.165514	-0.315844	0.254695	0.424943	1.5708	0	0	0.33462	-0.175034	0.50676	0.343755	1.5708	0	0
0.29	-2.94895	1.31426	-1.58515	0.83326	-0.419211	1.09013	-0.258462	-0.0362517	-0.0868715	0.217979	-0.349896	0	0	-0.278862	-0.0509265	-0.137242	0.311529	-0.20056	0	0	-0.561666	-0.0229423	0.150013	0.16441	-0.317451	0.261106	0.428968	1.5708	0	0	0.33239	-0.176516	0.504358	0.348144	1.5708	0	0
0.3	-2.94864	1.31395	-1.58559	0.833318	-0.419254	1.09014	-0.258985	-0.0363041	-0.0870283	0.217778	-0.349655	0	0	-0.279155	-0.0509225	-0.137902	0.311512	-0.200548	0	0	-0.562004	-0.0224607	0.149063	0.163161	-0.319217	0.266972	0.433356	1.5708	0	0	0.329782	-0.178237	0.501713	0.35323	1.5708	0	0
0.31	-2.94835	1.31354	-1.58569	0.83337	-0.419348	1.09015	-0.259474	-0.0363206	-0.0875699	0.217594	-0.349691	0	0	-0.279323	-0.0510058	-0.138041	0.311835	-0.20043	0	0	-0.562597	-0.0219114	0.147757	0.162027	-0.320963	0.272655	0.437751	1.5708	0	0	0.327047	-0.180354	0.498842	0.358997	1.5708	0	0
0.32	-2.94698	1.3129	-1.58529	0.833353	-0.419513	1.09015	-0.260486	-0.0361576	-0.0898943	0.216683	-0.350122	0	0	-0.27903	-0.0513189	-0.13627	0.313246	-0.199794	0	0	-0.563455	-0.0210148	0.144989	0.160779	-0.322399	0.277804	0.442456	1.5708	0	0	0.324241	-0.183182	0.495995	0.36563	1.5708	0	0
0.33	-2.94673	1.30089	-1.65029	0.838655	-0.425667	1.09036	-0.232759	-0.0554115	0.00868076	0.275972	-0.317795	0	0	-0.298143	-0.0288144	-0.197164	0.301944	-0.208964	0	0	-0.583249	-0.0467554	0.191455	0.17529	-0.34668	0.30861	0.459783	1.5708	0	0	0.331146	-0.173028	0.487187	0.372573	1.5708	0	0
0.34	-2.94483	1.30055	-1.65094	0.838703	-0.425819	1.09036	-0.233007	-0.0555295	0.00733963	0.276559	-0.313834	0	0	-0.297657	-0.0288334	-0.195678	0.303244	-0.208712	0	0	-0.58401	-0.0462074	0.188953	0.173739	-0.348539	0.313005	0.465478	1.5708	0	0	0.327713	-0.176587	0.484503	0.381194	1.5708	0	0
0.35	-2.93621	1.31184	-1.58693	0.832852	-0.419585	1.09011	-0.264954	-0.0365569	-0.103733	0.211826	-0.347964	0	0	-0.277218	-0.0510502	-0.126038	0.317172	-0.197711	0	0	-0.563398	-0.0177713	0.131664	0.155828	-0.326401	0.294301	0.457112	1.5708	0	0	0.311569	-0.194838	0.486046	0.391556	1.5708	0	0
0.36	-2.9373	1.31209	-1.58771	0.833074	-0.419707	1.09009	-0.264258	-0.0365617	-0.100077	0.211538	-0.351367	0	0	-0.276984	-0.0509575	-0.128296	0.317147	-0.197755	0	0	-0.56283	-0.0173909	0.131671	0.153717	-0.329297	0.298567	0.464487	1.5708	0	0	0.306907	-0.198895	0.48526	0.402609	1.5708	0	0
0.37	-2.94028	1.31257	-1.5858	0.833163	-0.419779	1.09016	-0.264186	-0.0356713	-0.0970698	0.209775	-0.35294	0	0	-0.27642	-0.0516187	-0.129934	0.317115	-0.198068	0	0	-0.561441	-0.015867	0.130692	0.15151	-0.332789	0.30518	0.473077	1.5708	0	0	0.300906	-0.203396	0.482964	0.415566	1.5708	0	0
0.38	-2.93974	1.31352	-1.58613	0.833093	-0.419753	1.09006	-0.263465	-0.035726	-0.0974234	0.209377	-0.353047	0	0	-0.274941	-0.0516031	-0.129945	0.317801	-0.197778	0	0	-0.556628	-0.0139295	0.126351	0.148349	-0.33999	0.330927	0.48371	1.5708	0	0	0.292293	-0.209388	0.480407	0.429967	1.5708	0	0
0.39	-2.93738	1.31679	-1.58803	0.832969	-0.419518	1.08983	-0.260269	-0.0362355	-0.0980283	0.20922	-0.352929	0	0	-0.27088	-0.0510131	-0.128916	0.318676	-0.197539	0	0	-0.550539	-0.0134035	0.124566	0.145247	-0.340806	0.326198	0.494647	1.5708	0	0	0.284526	-0.216092	0.480207	0.447909	1.5708	0	0
0.4	-2.93477	1.32132	-1.59079	0.832902	-0.419199	1.08947	-0.255137	-0.0369302	-0.0974469	0.210228	-0.352116	0	0	-0.265105	-0.0503436	-0.129007	0.320639	-0.1967	0	0	-0.541072	-0.0127812	0.122209	0.139804	-0.345134	0.333336	0.510224	1.5708	0	0	0.274679	-0.223716	0.479115	0.46814	1.5708	0	0
